<svg width="25" height="25" viewBox="0 0 25 25" fill="none" xmlns="http://www.w3.org/2000/svg">
<path d="M12.5 0C5.59121 0 0 5.59067 0 12.5C0 19.4088 5.59067 25 12.5 25C19.4088 25 25 19.4093 25 12.5C25 5.59116 19.4093 0 12.5 0ZM12.5 23.0469C6.6707 23.0469 1.95312 18.3297 1.95312 12.5C1.95312 6.67065 6.67026 1.95312 12.5 1.95312C18.3293 1.95312 23.0469 6.67026 23.0469 12.5C23.0469 18.3293 18.3297 23.0469 12.5 23.0469Z" fill="#CC0012"/>
<path d="M16.7759 15.3956L13.8803 12.5L16.7759 9.60442C17.1572 9.22307 17.1573 8.60476 16.776 8.22336C16.3945 7.84197 15.7762 7.84202 15.3949 8.22336L12.4992 11.119L9.6036 8.22336C9.2223 7.84197 8.60389 7.84197 8.22255 8.22336C7.8412 8.60476 7.8412 9.22307 8.22259 9.60442L11.1182 12.5L8.22259 15.3956C7.8412 15.777 7.84115 16.3953 8.22255 16.7767C8.60404 17.1581 9.22235 17.158 9.6036 16.7767L12.4992 13.8811L15.3949 16.7767C15.7761 17.158 16.3946 17.1581 16.776 16.7767C17.1573 16.3953 17.1573 15.777 16.7759 15.3956Z" fill="#CC0012"/>
</svg>
