<svg width="25" height="25" viewBox="0 0 25 25" fill="none" xmlns="http://www.w3.org/2000/svg">
<path d="M12.0001 5.65817C12.648 5.65817 13.1733 5.1329 13.1733 4.48499C13.1733 3.30571 14.1328 2.34636 15.3119 2.34636H18.6248C19.2727 2.34636 19.798 1.82109 19.798 1.17318C19.798 0.525272 19.2727 0 18.6248 0H15.3119C12.8388 0 10.8269 2.01193 10.8269 4.48499C10.8269 5.13274 11.3522 5.65817 12.0001 5.65817Z" fill="#868686"/>
<path d="M18.3731 9.32709H6.37508C5.72718 9.32709 5.2019 9.85236 5.2019 10.5003C5.2019 11.1482 5.72718 11.6734 6.37508 11.6734H10.8269V23.8268C10.8269 24.4747 11.3522 25 12.0001 25C12.648 25 13.1733 24.4747 13.1733 23.8268V11.6734H18.3733C19.0212 11.6734 19.5465 11.1482 19.5465 10.5003C19.5465 9.85236 19.021 9.32709 18.3731 9.32709Z" fill="#868686"/>
</svg>
