<svg width="25" height="25" viewBox="0 0 25 25" fill="none" xmlns="http://www.w3.org/2000/svg">
<path d="M2.37536 5.88257C1.69507 5.88257 1.14355 6.43409 1.14355 7.11437V23.7682C1.14355 24.4485 1.69507 25 2.37536 25C3.05564 25 3.60716 24.4485 3.60716 23.7682V7.11437C3.60716 6.43392 3.05564 5.88257 2.37536 5.88257Z" fill="#868686"/>
<path d="M11.1703 18.8965C10.49 18.8965 9.93848 19.448 9.93848 20.1283V23.7682C9.93848 24.4485 10.49 25 11.1703 25C11.8506 25 12.4021 24.4485 12.4021 23.7682V20.1283C12.4021 19.448 11.8506 18.8965 11.1703 18.8965Z" fill="#868686"/>
<path d="M16.898 7.20848C15.1851 7.20848 13.616 7.83161 12.4021 8.86156V7.11437C12.4021 6.43409 11.8506 5.88257 11.1703 5.88257C10.49 5.88257 9.93848 6.43409 9.93848 7.11437V14.1664C9.93848 14.1665 9.93848 14.1667 9.93848 14.1668C9.93848 14.1672 9.93848 14.1673 9.93848 14.1678C9.93848 14.8481 10.49 15.3996 11.1703 15.3996C11.8506 15.3996 12.4021 14.8481 12.4021 14.1678C12.4021 11.6888 14.419 9.67208 16.898 9.67208C19.3769 9.67208 21.3936 11.6888 21.3936 14.1678V23.7682C21.3936 24.4485 21.9451 25 22.6254 25C23.3058 25 23.8572 24.4485 23.8572 23.7682V14.1678C23.8572 10.3304 20.7355 7.20848 16.898 7.20848Z" fill="#868686"/>
<path d="M2.37487 2.4636C2.69842 2.4636 3.01705 2.33221 3.24698 2.10392C3.47528 1.87398 3.60667 1.557 3.60667 1.23344C3.60667 0.908249 3.47528 0.591265 3.24698 0.361329C3.01705 0.133035 2.69842 0 2.37487 0C2.05132 0 1.73433 0.133035 1.5044 0.361329C1.27446 0.591265 1.14307 0.908249 1.14307 1.23344C1.14307 1.557 1.27446 1.87398 1.5044 2.10392C1.73433 2.33221 2.05132 2.4636 2.37487 2.4636Z" fill="#868686"/>
</svg>
