<svg width="180" height="43" viewBox="0 0 180 43" fill="none" xmlns="http://www.w3.org/2000/svg">
<path d="M26.888 30.9C28.0493 30.9 28.9593 31.1773 29.618 31.732C30.2767 32.2867 30.606 33.0493 30.606 34.02C30.606 34.9907 30.2767 35.7533 29.618 36.308C28.9593 36.854 28.0493 37.127 26.888 37.127H24.444V40H23.482V30.9H26.888ZM26.862 36.282C27.7633 36.282 28.4523 36.087 28.929 35.697C29.4057 35.2983 29.644 34.7393 29.644 34.02C29.644 33.2833 29.4057 32.72 28.929 32.33C28.4523 31.9313 27.7633 31.732 26.862 31.732H24.444V36.282H26.862ZM33.1974 34.501C33.414 34.0417 33.7347 33.695 34.1594 33.461C34.5927 33.227 35.1257 33.11 35.7584 33.11V34.007L35.5374 33.994C34.818 33.994 34.2547 34.215 33.8474 34.657C33.44 35.099 33.2364 35.7187 33.2364 36.516V40H32.3134V33.162H33.1974V34.501ZM40.1611 40.065C39.5024 40.065 38.9088 39.9177 38.3801 39.623C37.8514 39.3197 37.4354 38.9037 37.1321 38.375C36.8288 37.8463 36.6771 37.2483 36.6771 36.581C36.6771 35.9137 36.8288 35.3157 37.1321 34.787C37.4354 34.2583 37.8514 33.8467 38.3801 33.552C38.9088 33.2573 39.5024 33.11 40.1611 33.11C40.8198 33.11 41.4134 33.2573 41.9421 33.552C42.4708 33.8467 42.8824 34.2583 43.1771 34.787C43.4804 35.3157 43.6321 35.9137 43.6321 36.581C43.6321 37.2483 43.4804 37.8463 43.1771 38.375C42.8824 38.9037 42.4708 39.3197 41.9421 39.623C41.4134 39.9177 40.8198 40.065 40.1611 40.065ZM40.1611 39.246C40.6464 39.246 41.0798 39.1377 41.4611 38.921C41.8511 38.6957 42.1544 38.3793 42.3711 37.972C42.5878 37.5647 42.6961 37.101 42.6961 36.581C42.6961 36.061 42.5878 35.5973 42.3711 35.19C42.1544 34.7827 41.8511 34.4707 41.4611 34.254C41.0798 34.0287 40.6464 33.916 40.1611 33.916C39.6758 33.916 39.2381 34.0287 38.8481 34.254C38.4668 34.4707 38.1634 34.7827 37.9381 35.19C37.7214 35.5973 37.6131 36.061 37.6131 36.581C37.6131 37.101 37.7214 37.5647 37.9381 37.972C38.1634 38.3793 38.4668 38.6957 38.8481 38.921C39.2381 39.1377 39.6758 39.246 40.1611 39.246ZM51.8475 33.162V39.168C51.8475 40.3293 51.5615 41.1873 50.9895 41.742C50.4262 42.3053 49.5725 42.587 48.4285 42.587C47.7958 42.587 47.1935 42.4917 46.6215 42.301C46.0582 42.119 45.5988 41.8633 45.2435 41.534L45.7115 40.832C46.0408 41.1267 46.4395 41.3563 46.9075 41.521C47.3842 41.6857 47.8825 41.768 48.4025 41.768C49.2692 41.768 49.9062 41.5643 50.3135 41.157C50.7208 40.7583 50.9245 40.1343 50.9245 39.285V38.414C50.6385 38.8473 50.2615 39.1767 49.7935 39.402C49.3342 39.6273 48.8228 39.74 48.2595 39.74C47.6182 39.74 47.0332 39.6013 46.5045 39.324C45.9845 39.038 45.5728 38.6437 45.2695 38.141C44.9748 37.6297 44.8275 37.0533 44.8275 36.412C44.8275 35.7707 44.9748 35.1987 45.2695 34.696C45.5728 34.1933 45.9845 33.8033 46.5045 33.526C47.0245 33.2487 47.6095 33.11 48.2595 33.11C48.8402 33.11 49.3645 33.227 49.8325 33.461C50.3005 33.695 50.6775 34.033 50.9635 34.475V33.162H51.8475ZM48.3505 38.921C48.8445 38.921 49.2908 38.817 49.6895 38.609C50.0882 38.3923 50.3958 38.0933 50.6125 37.712C50.8378 37.3307 50.9505 36.8973 50.9505 36.412C50.9505 35.9267 50.8378 35.4977 50.6125 35.125C50.3958 34.7437 50.0882 34.449 49.6895 34.241C49.2995 34.0243 48.8532 33.916 48.3505 33.916C47.8565 33.916 47.4102 34.02 47.0115 34.228C46.6215 34.436 46.3138 34.7307 46.0885 35.112C45.8718 35.4933 45.7635 35.9267 45.7635 36.412C45.7635 36.8973 45.8718 37.3307 46.0885 37.712C46.3138 38.0933 46.6215 38.3923 47.0115 38.609C47.4102 38.817 47.8565 38.921 48.3505 38.921ZM55.3126 34.501C55.5293 34.0417 55.8499 33.695 56.2746 33.461C56.7079 33.227 57.2409 33.11 57.8736 33.11V34.007L57.6526 33.994C56.9333 33.994 56.3699 34.215 55.9626 34.657C55.5553 35.099 55.3516 35.7187 55.3516 36.516V40H54.4286V33.162H55.3126V34.501ZM61.9241 33.11C62.8168 33.11 63.5015 33.3353 63.9781 33.786C64.4548 34.228 64.6931 34.8867 64.6931 35.762V40H63.8091V38.934C63.6011 39.2893 63.2935 39.5667 62.8861 39.766C62.4875 39.9653 62.0108 40.065 61.4561 40.065C60.6935 40.065 60.0868 39.883 59.6361 39.519C59.1855 39.155 58.9601 38.674 58.9601 38.076C58.9601 37.4953 59.1681 37.0273 59.5841 36.672C60.0088 36.3167 60.6805 36.139 61.5991 36.139H63.7701V35.723C63.7701 35.1337 63.6055 34.6873 63.2761 34.384C62.9468 34.072 62.4658 33.916 61.8331 33.916C61.3998 33.916 60.9838 33.9897 60.5851 34.137C60.1865 34.2757 59.8441 34.4707 59.5581 34.722L59.1421 34.033C59.4888 33.7383 59.9048 33.513 60.3901 33.357C60.8755 33.1923 61.3868 33.11 61.9241 33.11ZM61.5991 39.337C62.1191 39.337 62.5655 39.22 62.9381 38.986C63.3108 38.7433 63.5881 38.3967 63.7701 37.946V36.828H61.6251C60.4551 36.828 59.8701 37.2353 59.8701 38.05C59.8701 38.4487 60.0218 38.765 60.3251 38.999C60.6285 39.2243 61.0531 39.337 61.5991 39.337ZM75.7281 33.11C76.5861 33.11 77.2578 33.357 77.7431 33.851C78.2371 34.345 78.4841 35.073 78.4841 36.035V40H77.5611V36.126C77.5611 35.4153 77.3878 34.8737 77.0411 34.501C76.7031 34.1283 76.2221 33.942 75.5981 33.942C74.8874 33.942 74.3284 34.163 73.9211 34.605C73.5138 35.0383 73.3101 35.6407 73.3101 36.412V40H72.3871V36.126C72.3871 35.4153 72.2138 34.8737 71.8671 34.501C71.5291 34.1283 71.0438 33.942 70.4111 33.942C69.7091 33.942 69.1501 34.163 68.7341 34.605C68.3268 35.0383 68.1231 35.6407 68.1231 36.412V40H67.2001V33.162H68.0841V34.41C68.3268 33.994 68.6648 33.6733 69.0981 33.448C69.5314 33.2227 70.0298 33.11 70.5931 33.11C71.1651 33.11 71.6591 33.2313 72.0751 33.474C72.4998 33.7167 72.8161 34.0763 73.0241 34.553C73.2754 34.1023 73.6351 33.7513 74.1031 33.5C74.5798 33.24 75.1214 33.11 75.7281 33.11ZM89.5152 33.11C90.3732 33.11 91.0449 33.357 91.5302 33.851C92.0242 34.345 92.2712 35.073 92.2712 36.035V40H91.3482V36.126C91.3482 35.4153 91.1749 34.8737 90.8282 34.501C90.4902 34.1283 90.0092 33.942 89.3852 33.942C88.6745 33.942 88.1155 34.163 87.7082 34.605C87.3009 35.0383 87.0972 35.6407 87.0972 36.412V40H86.1742V36.126C86.1742 35.4153 86.0009 34.8737 85.6542 34.501C85.3162 34.1283 84.8309 33.942 84.1982 33.942C83.4962 33.942 82.9372 34.163 82.5212 34.605C82.1139 35.0383 81.9102 35.6407 81.9102 36.412V40H80.9872V33.162H81.8712V34.41C82.1139 33.994 82.4519 33.6733 82.8852 33.448C83.3185 33.2227 83.8169 33.11 84.3802 33.11C84.9522 33.11 85.4462 33.2313 85.8622 33.474C86.2869 33.7167 86.6032 34.0763 86.8112 34.553C87.0625 34.1023 87.4222 33.7513 87.8902 33.5C88.3669 33.24 88.9085 33.11 89.5152 33.11ZM94.7743 33.162H95.6973V40H94.7743V33.162ZM95.2423 31.667C95.0516 31.667 94.8913 31.602 94.7613 31.472C94.6313 31.342 94.5663 31.186 94.5663 31.004C94.5663 30.8307 94.6313 30.679 94.7613 30.549C94.8913 30.419 95.0516 30.354 95.2423 30.354C95.433 30.354 95.5933 30.419 95.7233 30.549C95.8533 30.6703 95.9183 30.8177 95.9183 30.991C95.9183 31.1817 95.8533 31.342 95.7233 31.472C95.5933 31.602 95.433 31.667 95.2423 31.667ZM101.75 33.11C102.608 33.11 103.288 33.3613 103.791 33.864C104.302 34.358 104.558 35.0817 104.558 36.035V40H103.635V36.126C103.635 35.4153 103.457 34.8737 103.102 34.501C102.746 34.1283 102.239 33.942 101.581 33.942C100.844 33.942 100.259 34.163 99.8255 34.605C99.4008 35.0383 99.1885 35.6407 99.1885 36.412V40H98.2655V33.162H99.1495V34.423C99.4008 34.007 99.7475 33.6863 100.19 33.461C100.64 33.227 101.16 33.11 101.75 33.11ZM113.42 33.162V39.168C113.42 40.3293 113.134 41.1873 112.562 41.742C111.998 42.3053 111.145 42.587 110.001 42.587C109.368 42.587 108.766 42.4917 108.194 42.301C107.63 42.119 107.171 41.8633 106.816 41.534L107.284 40.832C107.613 41.1267 108.012 41.3563 108.48 41.521C108.956 41.6857 109.455 41.768 109.975 41.768C110.841 41.768 111.478 41.5643 111.886 41.157C112.293 40.7583 112.497 40.1343 112.497 39.285V38.414C112.211 38.8473 111.834 39.1767 111.366 39.402C110.906 39.6273 110.395 39.74 109.832 39.74C109.19 39.74 108.605 39.6013 108.077 39.324C107.557 39.038 107.145 38.6437 106.842 38.141C106.547 37.6297 106.4 37.0533 106.4 36.412C106.4 35.7707 106.547 35.1987 106.842 34.696C107.145 34.1933 107.557 33.8033 108.077 33.526C108.597 33.2487 109.182 33.11 109.832 33.11C110.412 33.11 110.937 33.227 111.405 33.461C111.873 33.695 112.25 34.033 112.536 34.475V33.162H113.42ZM109.923 38.921C110.417 38.921 110.863 38.817 111.262 38.609C111.66 38.3923 111.968 38.0933 112.185 37.712C112.41 37.3307 112.523 36.8973 112.523 36.412C112.523 35.9267 112.41 35.4977 112.185 35.125C111.968 34.7437 111.66 34.449 111.262 34.241C110.872 34.0243 110.425 33.916 109.923 33.916C109.429 33.916 108.982 34.02 108.584 34.228C108.194 34.436 107.886 34.7307 107.661 35.112C107.444 35.4933 107.336 35.9267 107.336 36.412C107.336 36.8973 107.444 37.3307 107.661 37.712C107.886 38.0933 108.194 38.3923 108.584 38.609C108.982 38.817 109.429 38.921 109.923 38.921ZM122.926 33.11C123.568 33.11 124.148 33.2573 124.668 33.552C125.188 33.838 125.596 34.2453 125.89 34.774C126.185 35.3027 126.332 35.905 126.332 36.581C126.332 37.257 126.185 37.8593 125.89 38.388C125.596 38.9167 125.188 39.3283 124.668 39.623C124.148 39.9177 123.568 40.065 122.926 40.065C122.354 40.065 121.839 39.9437 121.379 39.701C120.929 39.4583 120.565 39.1073 120.287 38.648V40H119.403V30.354H120.326V34.462C120.612 34.02 120.976 33.6863 121.418 33.461C121.869 33.227 122.372 33.11 122.926 33.11ZM122.861 39.246C123.338 39.246 123.771 39.1377 124.161 38.921C124.551 38.6957 124.855 38.3793 125.071 37.972C125.297 37.5647 125.409 37.101 125.409 36.581C125.409 36.061 125.297 35.5973 125.071 35.19C124.855 34.7827 124.551 34.4707 124.161 34.254C123.771 34.0287 123.338 33.916 122.861 33.916C122.376 33.916 121.938 34.0287 121.548 34.254C121.167 34.4707 120.864 34.7827 120.638 35.19C120.422 35.5973 120.313 36.061 120.313 36.581C120.313 37.101 120.422 37.5647 120.638 37.972C120.864 38.3793 121.167 38.6957 121.548 38.921C121.938 39.1377 122.376 39.246 122.861 39.246ZM128.214 30.354H129.137V40H128.214V30.354ZM134.5 40.065C133.841 40.065 133.248 39.9177 132.719 39.623C132.19 39.3197 131.774 38.9037 131.471 38.375C131.168 37.8463 131.016 37.2483 131.016 36.581C131.016 35.9137 131.168 35.3157 131.471 34.787C131.774 34.2583 132.19 33.8467 132.719 33.552C133.248 33.2573 133.841 33.11 134.5 33.11C135.159 33.11 135.752 33.2573 136.281 33.552C136.81 33.8467 137.221 34.2583 137.516 34.787C137.819 35.3157 137.971 35.9137 137.971 36.581C137.971 37.2483 137.819 37.8463 137.516 38.375C137.221 38.9037 136.81 39.3197 136.281 39.623C135.752 39.9177 135.159 40.065 134.5 40.065ZM134.5 39.246C134.985 39.246 135.419 39.1377 135.8 38.921C136.19 38.6957 136.493 38.3793 136.71 37.972C136.927 37.5647 137.035 37.101 137.035 36.581C137.035 36.061 136.927 35.5973 136.71 35.19C136.493 34.7827 136.19 34.4707 135.8 34.254C135.419 34.0287 134.985 33.916 134.5 33.916C134.015 33.916 133.577 34.0287 133.187 34.254C132.806 34.4707 132.502 34.7827 132.277 35.19C132.06 35.5973 131.952 36.061 131.952 36.581C131.952 37.101 132.06 37.5647 132.277 37.972C132.502 38.3793 132.806 38.6957 133.187 38.921C133.577 39.1377 134.015 39.246 134.5 39.246ZM146.186 33.162V39.168C146.186 40.3293 145.9 41.1873 145.328 41.742C144.765 42.3053 143.911 42.587 142.767 42.587C142.135 42.587 141.532 42.4917 140.96 42.301C140.397 42.119 139.938 41.8633 139.582 41.534L140.05 40.832C140.38 41.1267 140.778 41.3563 141.246 41.521C141.723 41.6857 142.221 41.768 142.741 41.768C143.608 41.768 144.245 41.5643 144.652 41.157C145.06 40.7583 145.263 40.1343 145.263 39.285V38.414C144.977 38.8473 144.6 39.1767 144.132 39.402C143.673 39.6273 143.162 39.74 142.598 39.74C141.957 39.74 141.372 39.6013 140.843 39.324C140.323 39.038 139.912 38.6437 139.608 38.141C139.314 37.6297 139.166 37.0533 139.166 36.412C139.166 35.7707 139.314 35.1987 139.608 34.696C139.912 34.1933 140.323 33.8033 140.843 33.526C141.363 33.2487 141.948 33.11 142.598 33.11C143.179 33.11 143.703 33.227 144.171 33.461C144.639 33.695 145.016 34.033 145.302 34.475V33.162H146.186ZM142.689 38.921C143.183 38.921 143.63 38.817 144.028 38.609C144.427 38.3923 144.735 38.0933 144.951 37.712C145.177 37.3307 145.289 36.8973 145.289 36.412C145.289 35.9267 145.177 35.4977 144.951 35.125C144.735 34.7437 144.427 34.449 144.028 34.241C143.638 34.0243 143.192 33.916 142.689 33.916C142.195 33.916 141.749 34.02 141.35 34.228C140.96 34.436 140.653 34.7307 140.427 35.112C140.211 35.4933 140.102 35.9267 140.102 36.412C140.102 36.8973 140.211 37.3307 140.427 37.712C140.653 38.0933 140.96 38.3923 141.35 38.609C141.749 38.817 142.195 38.921 142.689 38.921Z" fill="#A09F9F"/>
<path d="M12.36 11.312L3.84 14.6L12.36 17.888V19.88L1.608 15.632V13.568L12.36 9.32V11.312ZM30.9368 6.2V23H28.5368V15.512H18.8888V23H16.4888V6.2H18.8888V13.424H28.5368V6.2H30.9368ZM47.1253 16.712C47.1253 16.888 47.1093 17.12 47.0773 17.408H36.7573C36.9013 18.528 37.3893 19.432 38.2213 20.12C39.0693 20.792 40.1173 21.128 41.3653 21.128C42.8853 21.128 44.1093 20.616 45.0373 19.592L46.3093 21.08C45.7333 21.752 45.0133 22.264 44.1493 22.616C43.3013 22.968 42.3493 23.144 41.2933 23.144C39.9493 23.144 38.7573 22.872 37.7173 22.328C36.6773 21.768 35.8693 20.992 35.2933 20C34.7333 19.008 34.4533 17.888 34.4533 16.64C34.4533 15.408 34.7253 14.296 35.2693 13.304C35.8293 12.312 36.5893 11.544 37.5493 11C38.5253 10.44 39.6213 10.16 40.8373 10.16C42.0533 10.16 43.1333 10.44 44.0773 11C45.0373 11.544 45.7813 12.312 46.3093 13.304C46.8533 14.296 47.1253 15.432 47.1253 16.712ZM40.8373 12.104C39.7333 12.104 38.8053 12.44 38.0533 13.112C37.3173 13.784 36.8853 14.664 36.7573 15.752H44.9173C44.7893 14.68 44.3493 13.808 43.5973 13.136C42.8613 12.448 41.9413 12.104 40.8373 12.104ZM50.3246 5.192H52.6286V23H50.3246V5.192ZM57.0278 5.192H59.3318V23H57.0278V5.192ZM69.1789 23.144C67.9149 23.144 66.7789 22.864 65.7709 22.304C64.7629 21.744 63.9709 20.976 63.3949 20C62.8349 19.008 62.5549 17.888 62.5549 16.64C62.5549 15.392 62.8349 14.28 63.3949 13.304C63.9709 12.312 64.7629 11.544 65.7709 11C66.7789 10.44 67.9149 10.16 69.1789 10.16C70.4429 10.16 71.5709 10.44 72.5629 11C73.5709 11.544 74.3549 12.312 74.9149 13.304C75.4909 14.28 75.7789 15.392 75.7789 16.64C75.7789 17.888 75.4909 19.008 74.9149 20C74.3549 20.976 73.5709 21.744 72.5629 22.304C71.5709 22.864 70.4429 23.144 69.1789 23.144ZM69.1789 21.128C69.9949 21.128 70.7229 20.944 71.3629 20.576C72.0189 20.192 72.5309 19.664 72.8989 18.992C73.2669 18.304 73.4509 17.52 73.4509 16.64C73.4509 15.76 73.2669 14.984 72.8989 14.312C72.5309 13.624 72.0189 13.096 71.3629 12.728C70.7229 12.36 69.9949 12.176 69.1789 12.176C68.3629 12.176 67.6269 12.36 66.9709 12.728C66.3309 13.096 65.8189 13.624 65.4349 14.312C65.0669 14.984 64.8829 15.76 64.8829 16.64C64.8829 17.52 65.0669 18.304 65.4349 18.992C65.8189 19.664 66.3309 20.192 66.9709 20.576C67.6269 20.944 68.3629 21.128 69.1789 21.128ZM109.483 6.2L103.867 23H101.347L96.7626 9.584L92.1786 23H89.6106L83.9946 6.2H86.4666L91.0026 19.856L95.7306 6.2H97.9386L102.571 19.928L107.203 6.2H109.483ZM116.57 23.144C115.306 23.144 114.17 22.864 113.162 22.304C112.154 21.744 111.362 20.976 110.786 20C110.226 19.008 109.946 17.888 109.946 16.64C109.946 15.392 110.226 14.28 110.786 13.304C111.362 12.312 112.154 11.544 113.162 11C114.17 10.44 115.306 10.16 116.57 10.16C117.834 10.16 118.962 10.44 119.954 11C120.962 11.544 121.746 12.312 122.306 13.304C122.882 14.28 123.17 15.392 123.17 16.64C123.17 17.888 122.882 19.008 122.306 20C121.746 20.976 120.962 21.744 119.954 22.304C118.962 22.864 117.834 23.144 116.57 23.144ZM116.57 21.128C117.386 21.128 118.114 20.944 118.754 20.576C119.41 20.192 119.922 19.664 120.29 18.992C120.658 18.304 120.842 17.52 120.842 16.64C120.842 15.76 120.658 14.984 120.29 14.312C119.922 13.624 119.41 13.096 118.754 12.728C118.114 12.36 117.386 12.176 116.57 12.176C115.754 12.176 115.018 12.36 114.362 12.728C113.722 13.096 113.21 13.624 112.826 14.312C112.458 14.984 112.274 15.76 112.274 16.64C112.274 17.52 112.458 18.304 112.826 18.992C113.21 19.664 113.722 20.192 114.362 20.576C115.018 20.944 115.754 21.128 116.57 21.128ZM128.564 12.416C128.964 11.68 129.556 11.12 130.34 10.736C131.124 10.352 132.076 10.16 133.196 10.16V12.392C133.068 12.376 132.892 12.368 132.668 12.368C131.42 12.368 130.436 12.744 129.716 13.496C129.012 14.232 128.66 15.288 128.66 16.664V23H126.356V10.28H128.564V12.416ZM136.036 5.192H138.34V23H136.036V5.192ZM154.739 5.192V23H152.531V20.984C152.019 21.688 151.371 22.224 150.587 22.592C149.803 22.96 148.939 23.144 147.995 23.144C146.763 23.144 145.659 22.872 144.683 22.328C143.707 21.784 142.939 21.024 142.379 20.048C141.835 19.056 141.563 17.92 141.563 16.64C141.563 15.36 141.835 14.232 142.379 13.256C142.939 12.28 143.707 11.52 144.683 10.976C145.659 10.432 146.763 10.16 147.995 10.16C148.907 10.16 149.747 10.336 150.515 10.688C151.283 11.024 151.923 11.528 152.435 12.2V5.192H154.739ZM148.187 21.128C148.987 21.128 149.715 20.944 150.371 20.576C151.027 20.192 151.539 19.664 151.907 18.992C152.275 18.304 152.459 17.52 152.459 16.64C152.459 15.76 152.275 14.984 151.907 14.312C151.539 13.624 151.027 13.096 150.371 12.728C149.715 12.36 148.987 12.176 148.187 12.176C147.371 12.176 146.635 12.36 145.979 12.728C145.339 13.096 144.827 13.624 144.443 14.312C144.075 14.984 143.891 15.76 143.891 16.64C143.891 17.52 144.075 18.304 144.443 18.992C144.827 19.664 145.339 20.192 145.979 20.576C146.635 20.944 147.371 21.128 148.187 21.128ZM164.162 2.792H166.25L158.33 25.4H156.242L164.162 2.792ZM177.712 13.568V15.632L166.96 19.88V17.888L175.504 14.6L166.96 11.312V9.32L177.712 13.568Z" fill="#555555"/>
</svg>
