<svg width="25" height="25" viewBox="0 0 25 25" fill="none" xmlns="http://www.w3.org/2000/svg">
<path d="M20.1257 23.6809C19.9304 23.6809 19.7365 23.6231 19.5701 23.5103L13.2841 19.2464L9.91265 21.6723C9.64823 21.8625 9.30742 21.9104 9.00038 21.8006C8.69374 21.6905 8.46086 21.4366 8.37773 21.1216L6.68488 14.7062L0.636129 12.3933C0.255336 12.2476 0.00279387 11.8833 2.30254e-05 11.4756C-0.00274782 11.0679 0.244781 10.7002 0.623727 10.5494L23.6233 1.39768C23.7277 1.35335 23.8381 1.32775 23.9495 1.32089C23.9893 1.31851 24.0293 1.31851 24.069 1.32076C24.2997 1.33448 24.5262 1.42843 24.703 1.6018C24.7214 1.61975 24.7388 1.63809 24.7553 1.65722C24.9017 1.82452 24.9822 2.02851 24.9974 2.23632C25.0011 2.28857 25.0008 2.34148 24.9962 2.39439C24.993 2.43213 24.9876 2.46973 24.98 2.50707L21.0977 22.8766C21.0353 23.2038 20.8126 23.4777 20.5049 23.6053C20.3829 23.656 20.254 23.6809 20.1257 23.6809ZM13.836 17.2292L19.4354 21.0273L22.4561 5.17751L11.546 15.6758L13.8096 17.2114C13.8187 17.2171 13.8275 17.2232 13.836 17.2292ZM9.17481 16.3846L9.92452 19.2254L11.5398 18.0631L9.42472 16.6283C9.32642 16.5618 9.24224 16.479 9.17481 16.3846ZM3.71242 11.4504L7.86579 13.0384C8.16332 13.1521 8.38789 13.4023 8.46917 13.7103L8.9959 15.7064C9.02004 15.4762 9.12441 15.2596 9.29396 15.0963L19.6898 5.09306L3.71242 11.4504Z" fill="#868686"/>
</svg>
